<svg width="12" height="12" viewBox="0 0 12 12" fill="none" xmlns="http://www.w3.org/2000/svg">
<path d="M0.124589 6.15625L9.26678 6.15625L3.7949 10.9063C3.7074 10.9828 3.76053 11.125 3.87615 11.125L5.25896 11.125C5.3199 11.125 5.37771 11.1031 5.42303 11.0641L11.3277 5.94063C11.3818 5.89375 11.4252 5.83579 11.4549 5.77069C11.4846 5.70558 11.5 5.63485 11.5 5.56328C11.5 5.49171 11.4846 5.42098 11.4549 5.35587C11.4252 5.29077 11.3818 5.23282 11.3277 5.18594L5.38865 0.0312505C5.36521 0.010938 5.33709 5.38779e-07 5.3074 5.41374e-07L3.87771 6.66361e-07C3.76209 6.7647e-07 3.70896 0.143751 3.79646 0.218751L9.26678 4.96875L0.124588 4.96875C0.0558384 4.96875 -0.000411567 5.025 -0.000411561 5.09375L-0.000411479 6.03125C-0.000411473 6.1 0.0558385 6.15625 0.124589 6.15625Z" fill="white"/>
</svg>
