<svg width="12" height="14" viewBox="0 0 12 14" fill="none" xmlns="http://www.w3.org/2000/svg">
<path d="M1.33333 13.333H10.6667C11.0203 13.333 11.3594 13.1925 11.6095 12.9425C11.8595 12.6925 12 12.3533 12 11.9997V4.66636C12 4.48955 11.9298 4.31998 11.8047 4.19495C11.6797 4.06993 11.5101 3.99969 11.3333 3.99969H9.33333V3.48169C9.33333 1.74236 8.06467 0.185026 6.33333 0.0163593C5.86992 -0.0296993 5.40199 0.0217599 4.95966 0.167426C4.51732 0.313092 4.11038 0.549739 3.76501 0.862143C3.41964 1.17455 3.14349 1.55579 2.95433 1.98134C2.76516 2.40689 2.66717 2.86733 2.66667 3.33303V3.99969H0.666667C0.489856 3.99969 0.320286 4.06993 0.195262 4.19495C0.0702379 4.31998 0 4.48955 0 4.66636V11.9997C0 12.3533 0.140476 12.6925 0.390524 12.9425C0.640573 13.1925 0.979711 13.333 1.33333 13.333ZM9.33333 5.33303V6.66636H8V5.33303H9.33333ZM4 3.33303C4 2.23036 4.89733 1.33303 6 1.33303C7.10267 1.33303 8 2.23036 8 3.33303V3.99969H4V3.33303ZM2.66667 5.33303H4V6.66636H2.66667V5.33303Z" fill="#FAF9F7"/>
</svg>
