<svg width="14" height="14" viewBox="0 0 14 14" fill="none" xmlns="http://www.w3.org/2000/svg">
<path d="M12.94 6.38667L6.94 0.386667C6.7 0.146667 6.36667 0 6 0H1.33333C0.6 0 0 0.6 0 1.33333V6C0 6.36667 0.146667 6.7 0.393333 6.94667L6.39333 12.9467C6.63333 13.1867 6.96667 13.3333 7.33333 13.3333C7.7 13.3333 8.03333 13.1867 8.27333 12.94L12.94 8.27333C13.1867 8.03333 13.3333 7.7 13.3333 7.33333C13.3333 6.96667 13.18 6.62667 12.94 6.38667ZM2.33333 3.33333C1.78 3.33333 1.33333 2.88667 1.33333 2.33333C1.33333 1.78 1.78 1.33333 2.33333 1.33333C2.88667 1.33333 3.33333 1.78 3.33333 2.33333C3.33333 2.88667 2.88667 3.33333 2.33333 3.33333Z" fill="#232323"/>
</svg>
