<svg width="13" height="13" viewBox="0 0 13 13" fill="none" xmlns="http://www.w3.org/2000/svg">
<path d="M8.25 6.25C8.25 6.64556 8.1327 7.03224 7.91294 7.36114C7.69318 7.69004 7.38082 7.94638 7.01537 8.09776C6.64991 8.24913 6.24778 8.28874 5.85982 8.21157C5.47186 8.1344 5.11549 7.94392 4.83579 7.66421C4.55608 7.38451 4.3656 7.02814 4.28843 6.64018C4.21126 6.25222 4.25087 5.85009 4.40224 5.48463C4.55362 5.11918 4.80996 4.80682 5.13886 4.58706C5.46776 4.3673 5.85444 4.25 6.25 4.25C6.77993 4.25165 7.28768 4.46289 7.66239 4.83761C8.03711 5.21232 8.24835 5.72007 8.25 6.25V6.25ZM12.5 3.5V9C12.5 9.92826 12.1313 10.8185 11.4749 11.4749C10.8185 12.1313 9.92826 12.5 9 12.5H3.5C2.57174 12.5 1.6815 12.1313 1.02513 11.4749C0.368749 10.8185 0 9.92826 0 9V3.5C0 2.57174 0.368749 1.6815 1.02513 1.02513C1.6815 0.368749 2.57174 0 3.5 0H9C9.92826 0 10.8185 0.368749 11.4749 1.02513C12.1313 1.6815 12.5 2.57174 12.5 3.5V3.5ZM9.25 6.25C9.25 5.65666 9.07405 5.07664 8.74441 4.58329C8.41476 4.08994 7.94623 3.70542 7.39805 3.47836C6.84987 3.2513 6.24667 3.19189 5.66473 3.30764C5.08279 3.4234 4.54824 3.70912 4.12868 4.12868C3.70912 4.54824 3.4234 5.08279 3.30764 5.66473C3.19189 6.24667 3.2513 6.84987 3.47836 7.39805C3.70542 7.94623 4.08994 8.41476 4.58329 8.74441C5.07664 9.07405 5.65666 9.25 6.25 9.25C7.04565 9.25 7.80871 8.93393 8.37132 8.37132C8.93393 7.80871 9.25 7.04565 9.25 6.25ZM10.25 3C10.25 2.85166 10.206 2.70666 10.1236 2.58332C10.0412 2.45999 9.92406 2.36386 9.78701 2.30709C9.64997 2.25032 9.49917 2.23547 9.35368 2.26441C9.2082 2.29335 9.07456 2.36478 8.96967 2.46967C8.86478 2.57456 8.79335 2.7082 8.76441 2.85368C8.73547 2.99917 8.75033 3.14997 8.80709 3.28701C8.86386 3.42406 8.95999 3.54119 9.08332 3.6236C9.20666 3.70601 9.35166 3.75 9.5 3.75C9.69891 3.75 9.88968 3.67098 10.0303 3.53033C10.171 3.38968 10.25 3.19891 10.25 3Z" fill="#232323"/>
</svg>
