<svg width="16" height="13" viewBox="0 0 16 13" fill="none" xmlns="http://www.w3.org/2000/svg">
<path d="M15.9695 1.5482C15.3707 1.81136 14.7364 1.98516 14.087 2.06403C14.7715 1.65331 15.284 1.00854 15.5295 0.249115C14.882 0.624495 14.1773 0.891119 13.4435 1.03836C12.95 0.51126 12.2963 0.161706 11.5838 0.0439305C10.8713 -0.0738445 10.1398 0.0467444 9.5029 0.386988C8.86596 0.727231 8.35915 1.26811 8.0611 1.9257C7.76305 2.58329 7.69043 3.32083 7.8545 4.0239C5.128 3.89644 2.711 2.58686 1.0945 0.608499C0.800238 1.10878 0.646337 1.67911 0.649 2.25947C0.648599 2.79897 0.781472 3.33023 1.03582 3.80606C1.29017 4.2819 1.65812 4.68758 2.107 4.98709C1.58681 4.97137 1.07795 4.83134 0.623 4.57872V4.6182C0.622841 5.37547 0.884605 6.1095 1.36393 6.69589C1.84325 7.28228 2.51064 7.68495 3.253 7.83567C2.9718 7.91078 2.68207 7.94925 2.391 7.95013C2.1805 7.95013 1.9795 7.92963 1.779 7.89265C1.99026 8.5443 2.3995 9.11389 2.94975 9.52215C3.50001 9.9304 4.16389 10.157 4.849 10.1704C3.68821 11.0792 2.25589 11.5722 0.7815 11.5705C0.520353 11.5715 0.259381 11.5568 0 11.5265C1.50405 12.4899 3.25318 13.0013 5.0395 13C11.073 13 14.37 8.00411 14.37 3.67751C14.37 3.53955 14.37 3.3991 14.3595 3.25814C15.0044 2.79607 15.5603 2.22095 16 1.56069L15.9695 1.5482Z" fill="#232323"/>
</svg>
